<svg width="592" height="891" viewBox="0 0 592 891" fill="none" xmlns="http://www.w3.org/2000/svg">
<path d="M132 871.445L136.86 891L143 887.857L138.14 869L132 871.445Z" fill="white"/>
<path d="M125.133 817.431L125.003 837.728L130.725 835.677L130.707 816.075L125.133 817.431Z" fill="white"/>
<path d="M127.842 764.522L122.072 786.687L128.796 785.953L134.215 764.508L127.842 764.522Z" fill="white"/>
<path d="M159.257 718.856L140.342 735.004L146.389 737.413L164.553 721.716L159.257 718.856Z" fill="white"/>
<path d="M207.433 698.258L186.261 704.553L190.213 709.819L210.614 703.591L207.433 698.258Z" fill="white"/>
<path d="M259.407 690.587L237.777 691.474L240.482 696.816L261.36 695.822L259.407 690.587Z" fill="white"/>
<path d="M306.056 687.657L286.699 687.87L288.557 693.731L307.254 693.378L306.056 687.657Z" fill="white"/>
<path d="M356.375 682.754L337.072 685.751L339.876 690.963L358.497 687.929L356.375 682.754Z" fill="white"/>
<path d="M398.809 663.261L382.96 674.131L387.405 676.453L402.64 665.869L398.809 663.261Z" fill="white"/>
<path d="M416.615 623.966L410.834 641.595L416.459 641.473L421.916 624.405L416.615 623.966Z" fill="white"/>
<path d="M416.604 574.965L415.918 592.543L421.757 591.36L422.275 574.369L416.604 574.965Z" fill="white"/>
<path d="M426.088 527.964L417.91 546.029L423.835 546.475L431.605 528.971L426.088 527.964Z" fill="white"/>
<path d="M455.517 490.052L437.571 502.921L443.145 507.189L460.382 494.621L455.517 490.052Z" fill="white"/>
<path d="M500.185 471.613L481.846 478.607L485.66 483.649L503.322 476.75L500.185 471.613Z" fill="white"/>
<path d="M539.599 450.767L522.169 461.363L527.034 466.014L543.79 455.637L539.599 450.767Z" fill="white"/>
<path d="M566.192 419.481L553.354 435.161L559.527 438.096L571.804 422.839L566.192 419.481Z" fill="white"/>
<path d="M579.726 380.773L576.16 397.628L583.316 398.72L586.59 382.372L579.726 380.773Z" fill="white"/>
<path d="M576.529 335.278L579.739 353.724L585.154 351.071L581.91 333.276L576.529 335.278Z" fill="white"/>
<path d="M550.382 304.28L565.655 317.089L569.224 310.813L554.345 298.567L550.382 304.28Z" fill="white"/>
<path d="M509.976 289.314L528.529 295.346L529.46 288.351L511.472 282.686L509.976 289.314Z" fill="white"/>
<g clip-path="url(#clip0_3_61)">
<path d="M451.998 196.773C451.932 197.206 451.836 197.496 451.804 197.586L446.13 196.43C446.167 196.195 446.215 195.967 446.275 195.743C446.333 195.193 446.287 194.209 445.485 193.324C444.619 192.369 442.972 191.666 440.59 191.233L441.398 187.346C445.405 188.073 448.36 189.436 450.185 191.399C451.27 190.891 452.554 190.528 454.02 190.321C457.164 189.878 460.074 190.304 460.395 190.354L459.798 194.277C459.779 194.274 457.783 193.99 455.8 194.27C453.663 194.57 452.439 195.372 451.998 196.773Z" fill="white"/>
<path d="M408.196 158.71L394.849 242.978L336.24 212.922L408.196 158.71ZM400.512 170.877L354.874 205.262C355.706 206.074 358.032 208.069 361.382 208.734C364.198 209.293 367.272 208.801 370.509 207.269C377.162 204.118 385.784 204.504 394.592 208.252L400.512 170.877ZM393.922 212.481C389.163 210.159 381.094 207.384 374.127 210.683C369.821 212.722 365.486 213.412 361.228 212.737C360.963 212.695 360.698 212.648 360.434 212.595C356.009 211.716 352.851 209.543 351.137 208.077L345.024 212.683L390.219 235.86L393.922 212.481Z" fill="white"/>
<path d="M449.763 279.787C456.617 282.201 461.354 285.571 461.552 285.713L457.658 288.336C457.616 288.306 453.409 285.331 447.526 283.285C440.086 280.695 433.454 280.738 427.813 283.409L424.195 279.995C431.494 276.538 440.335 276.466 449.763 279.787Z" fill="white"/>
<path d="M335.8 258.185L316.224 234.334L463.872 257.719L451.867 266.167C475.12 270.294 489.541 277.381 490.636 277.918L489.97 282.12C489.97 282.12 450.877 263.058 400.3 268.224C384.823 269.807 370.245 268.938 357.196 266.871C325.48 261.846 308.044 252.217 306.75 251.504L307.34 247.184C307.558 247.303 318.411 253.202 335.8 258.185ZM398.806 264.241C415.93 262.491 431.386 263.21 444.53 265.013C444.57 265.019 444.61 265.025 444.649 265.031C444.609 265.025 444.57 265.019 444.53 265.013L451.679 259.983L327.738 240.352L344.168 260.369L344.168 260.369C359.372 263.957 378.254 266.341 398.806 264.241ZM336.426 258.36C338.748 259.017 341.182 259.656 343.723 260.261C341.183 259.655 338.748 259.017 336.426 258.36Z" fill="white"/>
<path d="M479.071 227.402C479.005 227.835 478.909 228.124 478.877 228.214L473.204 227.058C473.24 226.823 473.289 226.595 473.349 226.372C473.406 225.821 473.361 224.838 472.558 223.952C471.692 222.998 470.045 222.294 467.663 221.862L468.472 217.974C472.478 218.701 475.434 220.065 477.258 222.027C478.344 221.52 479.627 221.156 481.093 220.95C484.237 220.507 487.147 220.932 487.469 220.982L486.872 224.905C486.853 224.902 484.857 224.618 482.873 224.898C480.737 225.199 479.512 226 479.071 227.402Z" fill="white"/>
<path d="M344.166 187.955C344.1 188.388 344.004 188.677 343.972 188.767L338.299 187.611C338.335 187.376 338.384 187.148 338.444 186.925C338.501 186.374 338.456 185.391 337.653 184.506C336.787 183.551 335.14 182.847 332.758 182.415L333.567 178.527C337.573 179.255 340.529 180.618 342.353 182.58C343.438 182.073 344.722 181.709 346.188 181.503C349.332 181.06 352.242 181.485 352.564 181.535L351.967 185.458C351.948 185.455 349.952 185.171 347.968 185.451C345.832 185.752 344.607 186.553 344.166 187.955Z" fill="white"/>
<path d="M351.497 250.146L365.724 252.399L365.076 256.491L350.849 254.238L351.497 250.146Z" fill="white"/>
<path d="M401.607 243.925L410.696 186.54L438.693 249.799L401.607 243.925ZM407.831 240.977L430.505 244.569L413.362 206.054L407.831 240.977Z" fill="white"/>
</g>
<path d="M182.098 85.741C181.685 84.4765 181.034 82.6153 180.23 80.313C166.61 41.3807 167.577 33.749 169.326 32.6782C174.889 31.5289 183.816 41.6562 187.254 46.741C187.676 47.3622 188.488 47.6898 189.359 47.7007C190.225 47.6624 190.991 47.2238 191.332 46.5674C197.177 35.3471 185.604 25.7151 179.832 21.8028C184.43 20.372 188.337 21.3644 188.522 21.4122C189.475 21.677 190.53 21.3884 191.107 20.7087C191.684 20.0268 191.647 19.1173 191.017 18.4682C183.15 10.3797 166.741 11.1016 159.958 11.8069C160.847 8.30238 163.533 6.01478 163.56 5.99303C164.283 5.39966 164.435 4.48073 163.931 3.74802C163.429 3.01713 162.398 2.64625 161.4 2.8565C154.004 4.37674 148.103 8.14424 145.648 9.90509L133.404 4.86815C132.58 4.52966 131.594 4.63071 130.897 5.12756C130.202 5.62464 129.939 6.41557 130.23 7.13332L133.931 16.2695C114.429 19.6441 114.194 38.1524 114.194 38.3484C114.194 39.3095 115.08 40.1152 116.244 40.2103C117.395 40.2926 118.468 39.6586 118.698 38.7157C119.682 34.6681 125.366 32.0942 130.805 30.6032C121.807 41.1018 129.851 58.7153 130.264 59.6013C130.676 60.4833 131.826 60.9716 132.941 60.7432C134.055 60.513 134.787 59.636 134.644 58.6969C132.975 47.7118 148.111 38.5908 153.968 35.5017C159.07 48.0557 161.319 77.4329 161.835 85.1782C124.558 86.0426 96 97.2184 96 111.324C96 112.358 97.0184 113.202 98.2742 113.202H234.726C235.982 113.202 237 112.358 237 111.324C237 98.6329 213.882 88.3122 182.098 85.741ZM157.219 31.9988C156.967 31.5142 156.478 31.1401 155.873 30.9663C155.269 30.7982 154.603 30.8399 154.04 31.0925C153.191 31.4743 137.3 38.7281 131.811 49.6451C130.375 42.4589 130.557 32.7729 140.227 28.7954C141.212 28.3899 141.702 27.4621 141.39 26.5923C141.08 25.7244 140.061 25.165 138.958 25.2617C138.328 25.3202 127.792 26.3415 120.607 30.5456C120.764 30.1985 120.932 29.8476 121.116 29.495C124.165 23.6427 129.572 20.3233 137.186 19.6273C137.869 19.5653 138.481 19.251 138.851 18.7759C139.221 18.299 139.309 17.712 139.093 17.1755L136.28 10.2338L145.015 13.8278C145.894 14.1919 146.949 14.0476 147.64 13.4771C147.688 13.4392 151.235 10.5519 156.495 8.3631C155.715 9.95131 155.129 11.8637 155.129 14.0254C155.129 14.5863 155.434 15.1163 155.961 15.4729C156.488 15.8274 157.179 15.964 157.849 15.8603C158.025 15.8274 172.629 13.5029 182.271 17.453C179.856 17.733 177.096 18.4383 174.335 19.9529C173.702 20.3 173.322 20.8848 173.322 21.5092C173.322 22.134 173.701 22.7188 174.335 23.0659C174.501 23.1572 188.98 31.2319 188.322 41.0361C184.056 35.7812 175.938 27.4587 168.221 29.0503C167.364 29.2257 166.156 29.7021 165.269 30.9688C161.374 36.5287 166.686 55.1288 175.857 81.3479C176.412 82.9357 176.892 84.3046 177.27 85.4138C173.765 85.2224 170.169 85.1229 166.499 85.1229C166.462 85.1229 166.425 85.1229 166.388 85.1234C165.862 76.9522 163.385 43.8333 157.219 31.9988ZM100.787 109.46C103.685 98.2343 132.599 88.8796 166.5 88.8796C200.401 88.8796 229.315 98.2343 232.213 109.46H100.787Z" fill="white"/>
<path d="M3 134.561C12.3999 120.347 34.5145 109.893 45 120.061C55.4855 130.229 73 137.061 87.5 134.561C102 132.061 125 129.561 125 129.561C125 129.561 151.391 129.086 158.5 139.561" stroke="white" stroke-width="5"/>
<path d="M221 130.003C231.486 140.171 240 138.883 262.5 135.003C285 131.124 298 130.003 298 130.003C298 130.003 333.891 129.525 341 140" stroke="white" stroke-width="5"/>
<path d="M131 167.449C144 180.887 161.5 173.387 176.5 167.449C191.5 161.51 199 149.326 217 155.887C235 162.449 248.5 167.449 248.5 167.449" stroke="white" stroke-width="5"/>
<defs>
<clipPath id="clip0_3_61">
<rect width="185.846" height="126.958" fill="white" transform="matrix(-0.987688 -0.156434 -0.156434 0.987688 507.558 171.073)"/>
</clipPath>
</defs>
</svg>
